<?xml version="1.0" encoding="UTF-8"?>
<svg width="700px" height="500px" viewBox="0 0 700 500" xmlns="http://www.w3.org/2000/svg" xmlns:xlink="http://www.w3.org/1999/xlink" version="1.1">
 <!-- Generated by Pixelmator Pro 1.8 -->
 <path id="Shape" d="M350 470 C228.497 470 130 371.503 130 250 130 128.499 228.497 30 350 30 471.501 30 570 128.499 570 250 570 371.503 471.501 470 350 470 Z M326.868 385.543 C333.741 385.543 340.615 382.92 345.858 377.677 L444.674 278.861 C446.13 277.884 447.518 276.757 448.804 275.471 459.542 264.733 459.542 247.311 448.804 236.572 L345.094 132.862 C334.355 122.125 312.656 119.12 306.196 132.862 300.741 144.464 301.156 159.1 301.111 173.611 L298.056 250 298.056 338.611 C297.49 353.843 297.392 367.191 307.879 377.677 313.121 382.92 319.996 385.543 326.868 385.543 Z" fill="#009fe3" fill-opacity="1" stroke="none"/>
</svg>
